<?xml version="1.0" encoding="UTF-8" standalone="no"?>
<svg
   height="211.07115pt"
   version="1.1"
   viewBox="0 0 327.35181 211.07116"
   width="327.35181pt"
   id="svg80"
   sodipodi:docname="Same_THETA(d,phi)_different_EVO.svg"
   xml:space="preserve"
   inkscape:version="1.3.2 (091e20e, 2023-11-25, custom)"
   xmlns:inkscape="http://www.inkscape.org/namespaces/inkscape"
   xmlns:sodipodi="http://sodipodi.sourceforge.net/DTD/sodipodi-0.dtd"
   xmlns:xlink="http://www.w3.org/1999/xlink"
   xmlns="http://www.w3.org/2000/svg"
   xmlns:svg="http://www.w3.org/2000/svg"
   xmlns:rdf="http://www.w3.org/1999/02/22-rdf-syntax-ns#"
   xmlns:cc="http://creativecommons.org/ns#"
   xmlns:dc="http://purl.org/dc/elements/1.1/"><sodipodi:namedview
     id="namedview80"
     pagecolor="#ffffff"
     bordercolor="#000000"
     borderopacity="0.25"
     inkscape:showpageshadow="2"
     inkscape:pageopacity="0.0"
     inkscape:pagecheckerboard="0"
     inkscape:deskcolor="#d1d1d1"
     inkscape:document-units="pt"
     inkscape:zoom="1.375"
     inkscape:cx="248"
     inkscape:cy="154.54545"
     inkscape:window-width="1680"
     inkscape:window-height="987"
     inkscape:window-x="-8"
     inkscape:window-y="-8"
     inkscape:window-maximized="1"
     inkscape:current-layer="svg80" /><metadata
     id="metadata1"><rdf:RDF><cc:Work><dc:type
           rdf:resource="http://purl.org/dc/dcmitype/StillImage" /><dc:date>2024-09-21T12:21:42.017460</dc:date><dc:format>image/svg+xml</dc:format><dc:creator><cc:Agent><dc:title>Matplotlib v3.4.3, https://matplotlib.org/</dc:title></cc:Agent></dc:creator></cc:Work></rdf:RDF></metadata><defs
     id="defs1"><style
       type="text/css"
       id="style1">*{stroke-linecap:butt;stroke-linejoin:round;}</style><style
       type="text/css"
       id="style1-0">*{stroke-linecap:butt;stroke-linejoin:round;}</style><path
       d="M 0,0 V 3.5"
       id="m9fdfaebbf7"
       style="stroke:#000000;stroke-width:0.8" /><path
       d="M 1683,4416 C 691,4416 186,3628 186,2077 186,1326 320,680 544,366 c 224,-315 582,-494 979,-494 967,0 1453,833 1453,2474 0,1403 -416,2070 -1293,2070 z m -115,-224 c 621,0 870,-628 870,-2167 C 2438,661 2195,96 1606,96 986,96 723,744 723,2308 c 0,1352 237,1884 845,1884 z"
       id="URWPalladioL-Roma-30"
       transform="scale(0.015625)" /><path
       d="M 794,744 C 602,744 429,564 429,372 429,179 602,0 787,0 c 205,0 384,173 384,372 0,192 -179,372 -377,372 z"
       id="URWPalladioL-Roma-2e"
       transform="scale(0.015625)" /><path
       d="M 102,160 V 0 c 1197,0 1197,0 1428,0 230,0 230,0 1465,0 -13,125 -13,186 -13,269 0,79 0,138 13,270 -736,0 -1030,0 -2214,0 l 1165,1222 c 620,653 812,1002 812,1477 0,728 -499,1178 -1312,1178 -460,0 -774,-128 -1088,-447 L 250,3099 h 185 l 83,294 c 103,370 333,530 762,530 550,0 902,-346 902,-888 0,-480 -268,-952 -992,-1719 z"
       id="URWPalladioL-Roma-32"
       transform="scale(0.015625)" /><path
       d="m 813,3877 c 825,0 1184,0 1952,0 l 32,30 c -13,109 -13,157 -13,237 0,85 0,133 13,242 l -32,30 c -480,0 -768,0 -1114,0 -352,0 -633,0 -1113,0 l -32,-13 c 6,-392 12,-674 12,-880 0,-546 -19,-1163 -38,-1446 l 128,-39 c 301,303 474,394 787,394 615,0 999,-439 999,-1136 C 2394,580 1984,160 1286,160 941,160 621,277 531,444 L 237,973 83,883 C 230,516 307,310 397,27 c 179,-98 435,-155 710,-155 429,0 883,187 1235,496 391,348 596,786 596,1262 0,729 -519,1244 -1248,1244 -308,0 -538,-83 -935,-320 z"
       id="URWPalladioL-Roma-35"
       transform="scale(0.015625)" /><path
       d="m 429,3584 h 64 l 825,372 c 7,6 13,6 20,6 38,0 51,-57 51,-211 V 613 C 1389,276 1318,205 973,205 H 614 V 0 c 986,0 986,0 1056,0 84,0 224,0 442,0 77,0 301,0 563,0 v 205 h -333 c -352,0 -416,71 -416,407 v 3831 l -89,32 C 1421,4257 966,4065 384,3860 Z"
       id="URWPalladioL-Roma-31"
       transform="scale(0.015625)" /><path
       d="m 506,1782 c 76,270 243,597 467,810 83,77 269,224 435,224 339,0 538,-263 595,-411 243,-572 282,-900 282,-1478 -83,-379 -186,-758 -263,-1138 l -236,-1176 204,-57 c 109,96 212,218 333,282 l 173,1106 c 45,443 218,932 371,1285 179,399 499,797 640,836 45,12 58,25 64,45 13,57 39,186 224,443 -70,32 -70,128 -109,128 -249,-64 -768,-719 -1100,-1535 -13,404 -45,584 -90,784 -90,372 -211,610 -352,803 -237,334 -525,373 -710,373 -160,0 -416,-45 -743,-341 -128,-103 -454,-476 -550,-700 89,-123 128,-193 192,-315 z"
       id="PazoMath-Italic-67"
       transform="scale(0.015625)" /><path
       d="M 800,2465 442,671 C 435,626 429,615 410,538 371,361 358,265 358,190 358,31 429,-64 550,-64 c 224,0 448,126 948,527 l 96,75 102,83 -64,114 -288,-197 C 1158,412 1030,348 960,348 c -58,0 -90,51 -90,126 0,165 90,679 276,1598 l 83,393 h 685 l 70,319 c -243,-32 -461,-32 -704,-32 102,596 173,907 288,1249 l -70,96 C 1370,4021 1197,3944 998,3868 L 838,2784 C 557,2650 390,2580 275,2548 l -13,-83 z"
       id="URWPalladioL-Ital-74"
       transform="scale(0.015625)" /><path
       d="M 0,0 H -3.5"
       id="m3185f94f13"
       style="stroke:#000000;stroke-width:0.8" /><path
       d="m 358,32 58,-83 c 250,19 250,19 294,19 45,0 45,0 295,-19 269,700 582,1368 1005,2138 l 1171,2112 v 173 c -691,0 -915,0 -1434,0 -467,0 -781,0 -1401,0 l -64,-13 c 19,-609 19,-609 19,-674 0,-71 0,-71 -19,-654 h 192 l 44,359 c 52,399 96,450 391,450 H 2618 C 2362,3313 2163,2941 1920,2549 Z"
       id="URWPalladioL-Roma-37"
       transform="scale(0.015625)" /><path
       d="m 2662,4310 -236,109 C 1811,4214 1549,4086 1222,3804 563,3246 205,2464 205,1585 205,526 717,-128 1542,-128 c 832,0 1453,660 1453,1533 0,738 -441,1219 -1120,1219 -320,0 -512,-84 -889,-385 -71,-58 -77,-64 -148,-115 135,1160 672,1789 1824,2135 z M 1632,2239 c 486,0 813,-423 813,-1058 C 2445,513 2118,83 1626,83 1082,83 787,551 787,1412 c 0,224 26,346 96,455 141,218 442,372 749,372 z"
       id="URWPalladioL-Roma-36"
       transform="scale(0.015625)" /><path
       d="m 672,4225 h 352 c 154,0 224,-51 224,-166 0,-89 -26,-286 -58,-483 L 717,815 C 608,236 602,217 346,197 L 83,178 58,0 h 268 c 263,0 461,0 576,0 109,0 295,0 551,0 h 339 l 19,185 h -416 c -166,0 -230,51 -230,185 0,57 6,102 25,224 l 525,3107 c 0,7 26,134 58,256 6,32 25,96 45,179 230,38 332,51 454,51 653,0 966,-279 966,-867 0,-684 -460,-1241 -1024,-1241 -140,0 -268,31 -505,120 l 13,-196 c 236,-115 364,-147 550,-147 826,0 1530,736 1530,1592 0,634 -404,968 -1165,968 H 1754 1030 691 Z"
       id="URWPalladioL-Ital-50"
       transform="scale(0.015625)" /><path
       d="m 3091,4619 -77,70 C 2682,4524 2451,4466 1990,4422 l -25,-134 h 307 c 154,0 218,-46 218,-155 0,-52 -7,-110 -13,-155 l -179,-995 c -192,57 -365,89 -525,89 C 1331,3072 730,2614 435,2060 237,1692 109,1087 109,553 c 0,-413 96,-617 281,-617 173,0 410,108 628,279 345,281 556,528 985,1171 L 1856,802 c -70,-282 -102,-487 -102,-655 0,-134 57,-211 166,-211 109,0 262,77 480,239 l 518,390 -64,121 -281,-197 c -90,-63 -192,-108 -250,-108 -51,0 -89,57 -89,147 0,52 6,109 51,294 z M 2157,2239 C 2042,1679 1728,1119 1331,743 1107,534 851,381 730,381 c -103,0 -160,89 -160,248 0,802 294,1794 608,2035 83,64 204,96 377,96 282,0 467,-39 679,-146 z"
       id="URWPalladioL-Ital-64"
       transform="scale(0.015625)" /><path
       d="m 2029,4544 c -275,0 -557,-134 -851,-421 C 608,3581 186,2616 186,1443 186,428 390,-64 928,-64 c 339,0 736,236 1037,620 435,555 832,1608 832,2572 0,887 -243,1416 -768,1416 z M 1478,2112 c 436,0 615,-19 724,-70 C 2061,1398 1824,825 1619,492 1491,295 1318,181 1126,181 742,181 672,671 672,1430 c 0,197 13,401 45,606 134,57 307,76 761,76 z m 391,2188 c 403,0 441,-523 441,-1313 0,-179 -12,-363 -38,-542 -128,-44 -326,-63 -749,-63 -435,0 -621,19 -736,64 167,752 461,1440 691,1707 90,96 237,147 391,147 z"
       id="PazoMath-Italic-71"
       transform="scale(0.015625)" /><path
       d="m 4397,2048 c 96,0 217,0 217,129 0,128 -121,128 -211,128 H 570 c -90,0 -212,0 -212,-128 0,-129 122,-129 218,-129 z m 6,-1216 c 90,0 211,0 211,129 0,128 -121,128 -217,128 H 576 c -96,0 -218,0 -218,-128 0,-129 122,-129 212,-129 z"
       id="CMR10-3d"
       transform="scale(0.015625)" /><path
       d="m 230,-90 c 116,58 205,90 365,141 480,971 768,1562 1504,2609 L 2566,116 c 20,-109 90,-180 192,-180 160,0 391,142 999,602 L 3699,653 3533,544 C 3347,416 3194,352 3142,352 c -25,0 -51,0 -121,122 -51,77 -83,230 -147,449 l -416,2238 c -167,897 -391,1353 -692,1391 -172,-141 -422,-302 -563,-392 l -19,-154 c 122,45 314,122 371,122 167,0 333,-288 397,-660 l 109,-596 C 1517,2178 435,565 102,51 Z"
       id="PazoMath-Italic-6c"
       transform="scale(0.015625)" /><path
       d="m 2509,4158 c -128,-78 -301,-155 -499,-232 L 1882,3033 C 1683,2982 1491,2911 1293,2814 531,2442 109,1786 109,984 109,296 512,-64 1261,-64 c 38,0 77,0 115,7 -70,-379 -179,-913 -294,-1433 l -52,-238 45,-39 c 135,45 263,77 467,110 L 1805,1 c 307,70 608,192 857,359 570,380 973,1111 973,1773 0,604 -448,971 -1177,971 -39,0 -77,0 -116,-7 77,418 141,681 237,964 z M 3149,2037 C 3149,1414 2790,733 2342,393 2208,296 2035,226 1837,193 c 13,84 32,161 38,193 l 115,681 c 52,296 96,546 250,1445 l 58,341 c 544,-45 851,-328 851,-816 z M 595,977 c 0,720 448,1504 941,1774 77,39 186,71 314,90 L 1414,187 C 832,251 595,515 595,977 Z"
       id="PazoMath-Italic-66"
       transform="scale(0.015625)" /><path
       d="m 275,3197 h 199 l 115,357 c 70,216 473,433 806,433 416,0 755,-338 755,-739 0,-478 -377,-880 -832,-880 -51,0 -121,0 -204,13 h -96 l -77,-334 45,-39 c 243,110 364,142 537,142 531,0 839,-341 839,-928 C 2362,566 1971,135 1376,135 1082,135 819,231 627,411 474,553 390,701 269,1049 L 96,985 C 230,593 282,361 320,39 c 339,-116 621,-167 858,-167 512,0 1100,289 1452,721 218,264 327,547 327,849 0,309 -128,580 -359,740 -160,116 -307,168 -627,225 512,396 704,689 704,1065 0,568 -473,944 -1184,944 -435,0 -723,-121 -1030,-427 z"
       id="URWPalladioL-Roma-33"
       transform="scale(0.015625)" /><path
       d="m 2618,1472 h 1785 c 90,0 211,0 211,128 0,129 -121,129 -211,129 H 2618 v 1803 c 0,90 0,212 -128,212 -128,0 -128,-122 -128,-212 V 1729 H 570 c -90,0 -212,0 -212,-129 0,-128 122,-128 212,-128 H 2362 V -331 c 0,-90 0,-213 128,-213 128,0 128,123 128,213 z"
       id="CMR10-2b"
       transform="scale(0.015625)" /><path
       d="m 614,2277 58,45 c 134,379 390,398 755,398 77,0 192,0 327,0 C 1216,1254 973,810 454,-6 l 58,-58 474,165 c 230,498 620,1466 972,2587 H 3149 C 3040,2286 2669,1115 2669,701 c 0,-680 243,-765 441,-765 327,0 512,84 916,424 l -52,122 -153,-110 c 19,13 -167,-134 -275,-134 -301,0 -391,187 -391,585 0,161 13,334 51,521 109,534 218,1061 276,1325 147,0 294,0 441,19 115,0 256,66 359,105 70,137 96,150 217,306 l -45,77 c -172,-58 -460,-122 -672,-122 -76,13 -236,13 -396,13 -685,0 -1741,0 -2023,0 -480,0 -653,-203 -838,-739 z"
       id="PazoMath-Italic-70"
       transform="scale(0.015625)" /><path
       d="M 3322,4640 H 2938 L 557,-768 h 384 z"
       id="URWPalladioL-Roma-2f"
       transform="scale(0.015625)" /><clipPath
       id="p744fa3c4c3"><rect
         height="173.79294"
         width="265.77029"
         x="127.1951"
         y="41.856476"
         id="rect77" /></clipPath></defs><defs
     id="defs80" /><g
     id="patch_2"
     transform="translate(-74.629781,-26.233232)"><path
       d="M 127.1951,215.64941 H 392.96538 V 41.856475 H 127.1951 Z"
       style="fill:none"
       id="path2" /></g><g
     id="line2d_1"
     transform="translate(-74.629781,-26.233232)"><defs
       id="defs2" /><g
       id="g2"><use
         style="stroke:#000000;stroke-width:0.8"
         x="127.1951"
         xlink:href="#m9fdfaebbf7"
         y="215.64941"
         id="use2" /></g></g><use
     transform="matrix(0.1992528,0,0,-0.1992528,47.643159,210.67264)"
     xlink:href="#URWPalladioL-Roma-30"
     id="use5" /><g
     id="xtick_2"
     transform="translate(-74.629781,-26.233232)"><g
       id="line2d_2"><g
         id="g6"><use
           style="stroke:#000000;stroke-width:0.8"
           x="193.63766"
           xlink:href="#m9fdfaebbf7"
           y="215.64941"
           id="use6" /></g></g><g
       id="text_2"><!-- $\mathdefault{2.5}$ --><g
         transform="matrix(0.2,0,0,-0.2,181.18437,236.90588)"
         id="g9"><defs
           id="defs6" /><use
           transform="scale(0.996264)"
           xlink:href="#URWPalladioL-Roma-32"
           id="use7" /><use
           transform="matrix(0.996264,0,0,0.996264,49.8132,0)"
           xlink:href="#URWPalladioL-Roma-2e"
           id="use8" /><use
           transform="matrix(0.996264,0,0,0.996264,74.719801,0)"
           xlink:href="#URWPalladioL-Roma-35"
           id="use9" /></g></g></g><g
     id="xtick_3"
     transform="translate(-74.629781,-26.233232)"><g
       id="line2d_3"><g
         id="g10"><use
           style="stroke:#000000;stroke-width:0.8"
           x="260.08023"
           xlink:href="#m9fdfaebbf7"
           y="215.64941"
           id="use10" /></g></g><g
       id="text_3"><!-- $\mathdefault{5.0}$ --><g
         transform="matrix(0.2,0,0,-0.2,247.62694,236.90588)"
         id="g13"><use
           transform="scale(0.996264)"
           xlink:href="#URWPalladioL-Roma-35"
           id="use11" /><use
           transform="matrix(0.996264,0,0,0.996264,49.8132,0)"
           xlink:href="#URWPalladioL-Roma-2e"
           id="use12" /><use
           transform="matrix(0.996264,0,0,0.996264,74.719801,0)"
           xlink:href="#URWPalladioL-Roma-30"
           id="use13" /></g></g></g><g
     id="line2d_4"
     transform="translate(-74.629781,-26.233232)"><g
       id="g14"><use
         style="stroke:#000000;stroke-width:0.8"
         x="392.96539"
         xlink:href="#m9fdfaebbf7"
         y="215.64941"
         id="use14" /></g></g><g
     id="g102"
     transform="translate(-66.240814,-29.482327)"><use
       transform="matrix(0.1992528,0,0,-0.1992528,374.36472,240.15497)"
       xlink:href="#URWPalladioL-Roma-31"
       id="use15" /><use
       transform="matrix(0.1992528,0,0,-0.1992528,384.32736,240.15497)"
       xlink:href="#URWPalladioL-Roma-30"
       id="use16" /></g><g
     id="text_5"
     transform="translate(-8.287336,-54.205673)"><!-- $\gamma t$ --><g
       transform="matrix(0.2,0,0,-0.2,250.42658,260.78118)"
       id="g20"><defs
         id="defs18" /><use
         transform="scale(0.996264)"
         xlink:href="#PazoMath-Italic-67"
         id="use19" /><use
         transform="matrix(0.996264,0,0,0.996264,63.361394,0)"
         xlink:href="#URWPalladioL-Ital-74"
         id="use20" /></g></g><g
     id="line2d_5"
     transform="translate(-74.629781,-26.233232)"><defs
       id="defs20" /><g
       id="g21"><use
         style="stroke:#000000;stroke-width:0.8"
         x="127.1951"
         xlink:href="#m3185f94f13"
         y="215.64941"
         id="use21" /></g></g><use
     transform="matrix(0.1992528,0,0,-0.1992528,35.602679,196.5444)"
     xlink:href="#URWPalladioL-Roma-30"
     id="use29" /><g
     id="line2d_6"
     transform="translate(-74.629781,-26.233232)"><g
       id="g30"><use
         style="stroke:#000000;stroke-width:0.8"
         x="127.1951"
         xlink:href="#m3185f94f13"
         y="41.856476"
         id="use30" /></g></g><g
     id="text_8"
     transform="translate(-22.108032,-26.233232)"><!-- $P_d$ --><g
       transform="matrix(0,-0.2,-0.2,0,35.856475,137.8488)"
       id="g40"><defs
         id="defs38" /><use
         transform="scale(0.996264)"
         xlink:href="#URWPalladioL-Ital-50"
         id="use39" /><use
         transform="matrix(0.757155,0,0,0.757155,53.100799,-20.849366)"
         xlink:href="#URWPalladioL-Ital-64"
         id="use40" /></g></g><g
     id="line2d_7"
     transform="translate(-74.629781,-26.233232)"><path
       clip-path="url(#p744fa3c4c3)"
       d="m 127.1951,215.64941 0.53207,-0.0765 0.79811,-0.38435 0.79811,-0.67616 0.79811,-0.93632 1.06414,-1.60787 1.33018,-2.51782 1.33018,-3.00381 1.86226,-4.84913 2.66036,-7.71394 5.8528,-17.88498 3.45847,-10.22304 2.39433,-6.41245 2.66036,-6.48707 2.39433,-5.29598 2.12829,-4.15023 1.86226,-3.13858 1.86225,-2.72377 2.12829,-2.69523 1.86225,-2.00469 1.59622,-1.42264 1.59622,-1.1354 1.59622,-0.87219 1.86225,-0.74488 1.86226,-0.49661 1.86225,-0.2463 1.59622,0.002 1.86225,0.24149 2.12829,0.53135 2.39433,0.84692 2.39433,1.0971 2.39432,1.35118 2.9264,1.92003 3.72451,2.72753 3.72451,3.01218 5.8528,5.06935 23.4112,20.59728 6.38487,5.11662 6.11883,4.59101 5.32073,3.73993 6.11883,4.01612 5.32073,3.22761 5.58676,3.15476 5.8528,3.02907 5.32073,2.52646 6.11883,2.64959 5.58677,2.17791 5.8528,2.0638 6.38487,1.99892 6.11883,1.68467 6.65091,1.60427 7.18298,1.48525 7.44902,1.29703 7.44901,1.08186 8.24713,0.98416 9.31127,0.88457 10.37542,0.75737 11.7056,0.63175 13.83389,0.5213 6.91694,0.19449 v 0"
       style="fill:none;stroke:#1f77b4;stroke-width:1.5;stroke-linecap:square"
       id="path40" /></g><g
     id="line2d_8"
     transform="translate(-74.629781,-26.233232)"><path
       clip-path="url(#p744fa3c4c3)"
       d="m 127.1951,215.64941 0.53207,-0.14924 0.53207,-0.43281 0.53207,-0.69546 0.79811,-1.49487 0.79811,-1.98872 1.06415,-3.34076 1.33018,-5.14918 1.59622,-7.3545 1.86225,-9.7359 2.9264,-16.6036 9.31127,-53.80194 2.66037,-13.30498 2.66036,-12.199762 2.12829,-8.749733 1.86225,-6.760898 1.86226,-5.976501 2.12829,-6.041346 1.86225,-4.643864 1.59622,-3.447929 1.59622,-2.91634 1.59622,-2.412343 1.59621,-1.985773 1.59622,-1.628609 1.59622,-1.290284 1.33018,-0.801236 1.33018,-0.53933 1.33018,-0.284628 1.33019,-0.05744 1.59621,0.181247 1.59622,0.41326 1.59622,0.634973 1.59622,0.866205 1.59622,1.098156 1.86225,1.542575 2.39433,2.3076 2.66036,2.910313 2.66036,3.264864 2.9264,3.957251 3.72451,5.418426 4.25658,6.586707 5.58677,9.121526 9.04523,15.204066 10.37542,17.297027 6.6509,10.65116 5.32073,8.17408 6.11884,8.94789 4.52261,6.23324 5.32073,6.95849 4.52262,5.51837 4.78865,5.50388 4.25658,4.53925 4.78866,4.7723 3.99054,3.66634 4.52262,3.86416 3.99054,3.13305 4.52262,3.26816 4.25658,2.8072 4.78866,2.86365 4.25658,2.3032 4.78865,2.33138 4.52262,1.97487 5.32072,2.05907 5.05469,1.71635 5.8528,1.73499 5.58677,1.41826 6.11883,1.33692 6.91695,1.26725 7.18298,1.08222 7.71505,0.94712 8.7792,0.85895 10.10938,0.76123 6.38487,0.38131 v 0"
       style="fill:none;stroke:#ff7f0e;stroke-width:1.5;stroke-linecap:square"
       id="path41" /></g><g
     id="patch_3"
     transform="translate(-74.629781,-26.233232)"
     style="opacity:1;fill:#000000;fill-opacity:1"><path
       d="M 127.1951,215.64941 V 41.856475"
       style="fill:#000000;fill-opacity:1;stroke:#000000;stroke-width:0.8;stroke-linecap:square;stroke-linejoin:miter"
       id="path42" /></g><g
     id="patch_4"
     transform="translate(-74.629781,-26.233232)"><path
       d="M 392.96538,215.64941 V 41.856475"
       style="fill:none;stroke:#000000;stroke-width:0.8;stroke-linecap:square;stroke-linejoin:miter"
       id="path43" /></g><g
     id="patch_5"
     transform="translate(-74.629781,-26.233232)"><path
       d="M 127.1951,215.64941 H 392.96538"
       style="fill:none;stroke:#000000;stroke-width:0.8;stroke-linecap:square;stroke-linejoin:miter"
       id="path44" /></g><g
     id="patch_6"
     transform="translate(-74.629781,-26.233232)"><path
       d="M 127.1951,41.856475 H 392.96538"
       style="fill:none;stroke:#000000;stroke-width:0.8;stroke-linecap:square;stroke-linejoin:miter"
       id="path45" /></g><g
     id="g116"
     transform="translate(-18,-4.9751379)"><g
       id="g115"><use
         transform="matrix(0.1992528,0,0,-0.1992528,226.66409,127.22121)"
         xlink:href="#PazoMath-Italic-71"
         id="use45" /><g
         id="g114"
         transform="translate(10.5)"><use
           transform="matrix(0.1992528,0,0,-0.1992528,253.00394,127.22121)"
           xlink:href="#URWPalladioL-Roma-30"
           id="use47" /><use
           transform="matrix(0.1992528,0,0,-0.1992528,262.96658,127.22121)"
           xlink:href="#URWPalladioL-Roma-2e"
           id="use48" /><use
           transform="matrix(0.1992528,0,0,-0.1992528,267.9479,127.22121)"
           xlink:href="#URWPalladioL-Roma-31"
           id="use49" /><use
           transform="matrix(0.1992528,0,0,-0.1992528,277.91054,127.22121)"
           xlink:href="#URWPalladioL-Roma-32"
           id="use50" /></g><use
         transform="matrix(0.2076214,0,0,-0.2076214,243.27592,127.22121)"
         xlink:href="#CMR10-3d"
         id="use53-0"
         style="stroke-linecap:butt;stroke-linejoin:round" /></g><g
       id="g113"
       transform="translate(50.140299,87.552676)"><use
         transform="matrix(0.1992528,0,0,-0.1992528,176.76352,14.598381)"
         xlink:href="#URWPalladioL-Ital-64"
         id="use52" /><g
         id="g112"><use
           transform="matrix(0.2076214,0,0,-0.2076214,192.75907,14.598381)"
           xlink:href="#CMR10-3d"
           id="use53" /><use
           transform="matrix(0.1992528,0,0,-0.1992528,214.68219,14.598381)"
           xlink:href="#URWPalladioL-Roma-30"
           id="use54" /><use
           transform="matrix(0.1992528,0,0,-0.1992528,224.64483,14.598381)"
           xlink:href="#URWPalladioL-Roma-2e"
           id="use55" /><use
           transform="matrix(0.1992528,0,0,-0.1992528,229.62615,14.598381)"
           xlink:href="#URWPalladioL-Roma-30"
           id="use56" /><use
           transform="matrix(0.1992528,0,0,-0.1992528,239.58879,14.598381)"
           xlink:href="#URWPalladioL-Roma-37"
           id="use57" /><use
           transform="matrix(0.1992528,0,0,-0.1992528,249.80049,14.598381)"
           xlink:href="#PazoMath-Italic-6c"
           id="use58" /></g></g></g><g
     id="patch_7"
     transform="matrix(0.72736593,0,0,0.91157028,39.28657,-30.740425)"><path
       d="m 186.46974,117.60707 h 192.49564 q 4,0 4,-4 V 55.856475 q 0,-4 -4,-4 H 186.46974 q -4,0 -4,4 v 57.750595 q 0,4 4,4 z"
       style="opacity:0.8;fill:none;stroke:#cccccc;stroke-linejoin:miter"
       id="path58" /></g><g
     id="line2d_9"
     transform="matrix(0.43970048,0,0,1.0166395,94.296317,-39.598513)"><path
       d="m 190.46974,67.112949 h 40"
       style="fill:none;stroke:#1f77b4;stroke-width:1.5;stroke-linecap:square"
       id="path59" /></g><g
     id="text_10"
     transform="translate(-46.129777,-38.233232)"><!-- $\phi_1=0.37775$ --><g
       transform="matrix(0.2,0,0,-0.2,246.46974,74.112949)"
       id="g68"><defs
         id="defs59" /><use
         transform="scale(0.996264)"
         xlink:href="#PazoMath-Italic-66"
         id="use59" /><use
         transform="matrix(0.757155,0,0,0.757155,57.433672,-18.577338)"
         xlink:href="#URWPalladioL-Roma-31"
         id="use60" /><use
         transform="matrix(1.038107,0,0,1.038107,124.70879,0)"
         xlink:href="#CMR10-3d"
         id="use61" /><use
         transform="matrix(0.996264,0,0,0.996264,234.32442,0)"
         xlink:href="#URWPalladioL-Roma-30"
         id="use62" /><use
         transform="matrix(0.996264,0,0,0.996264,284.13762,0)"
         xlink:href="#URWPalladioL-Roma-2e"
         id="use63" /><use
         transform="matrix(0.996264,0,0,0.996264,309.04422,0)"
         xlink:href="#URWPalladioL-Roma-33"
         id="use64" /><use
         transform="matrix(0.996264,0,0,0.996264,358.85742,0)"
         xlink:href="#URWPalladioL-Roma-37"
         id="use65" /><use
         transform="matrix(0.996264,0,0,0.996264,408.67062,0)"
         xlink:href="#URWPalladioL-Roma-37"
         id="use66" /><use
         transform="matrix(0.996264,0,0,0.996264,458.48383,0)"
         xlink:href="#URWPalladioL-Roma-37"
         id="use67" /><use
         transform="matrix(0.996264,0,0,0.996264,508.29703,0)"
         xlink:href="#URWPalladioL-Roma-35"
         id="use68" /></g></g><g
     id="line2d_11"
     transform="matrix(0.43970048,0,0,1.0166395,94.296317,-39.598513)"><path
       d="m 190.46974,96.988246 h 40"
       style="fill:none;stroke:#ff7f0e;stroke-width:1.5;stroke-linecap:square"
       id="path68" /></g><use
     transform="matrix(0.1992528,0,0,-0.1992528,200.33996,65.755018)"
     xlink:href="#PazoMath-Italic-66"
     id="use69" /><use
     transform="matrix(0.151431,0,0,-0.151431,211.82669,69.243303)"
     xlink:href="#URWPalladioL-Roma-32"
     id="use70" /><use
     transform="matrix(0.2076214,0,0,-0.2076214,225.28172,65.65283)"
     xlink:href="#CMR10-3d"
     id="use71" /><use
     transform="matrix(0.1992528,0,0,-0.1992528,247.4539,65.755018)"
     xlink:href="#PazoMath-Italic-66"
     id="use72" /><use
     transform="matrix(0.151431,0,0,-0.151431,258.94064,69.470483)"
     xlink:href="#URWPalladioL-Roma-31"
     id="use73" /><use
     transform="matrix(0.2076214,0,0,-0.2076214,270.73523,65.755018)"
     xlink:href="#CMR10-2b"
     id="use74" /><g
     id="g104"
     transform="translate(-107.96374,-32.178152)"><use
       transform="matrix(0.1992528,0,0,-0.1992528,399.21072,89.237345)"
       xlink:href="#PazoMath-Italic-70"
       id="use75" /><use
       transform="matrix(0.08035295,0.18233234,0.18233234,-0.08035295,398.97025,87.615099)"
       xlink:href="#URWPalladioL-Roma-2f"
       id="use76" /><use
       transform="matrix(0.1992528,0,0,-0.1992528,401.93955,105.73734)"
       xlink:href="#URWPalladioL-Roma-36"
       id="use77" /></g><text
     xml:space="preserve"
     style="font-size:19.5003px;font-family:'Palatino Linotype';-inkscape-font-specification:'Palatino Linotype, Normal';opacity:1;fill:#000000;fill-opacity:1;stroke:none;stroke-width:1.2956;stroke-opacity:1;-inkscape-stroke:none;paint-order:stroke markers fill"
     x="-1.1902035"
     y="22.20269"
     id="text106"><tspan
       sodipodi:role="line"
       id="tspan106"
       style="fill:#000000;fill-opacity:1;stroke:none;stroke-width:1.29561;stroke-opacity:1"
       x="-1.1902035"
       y="22.20269">1.476  </tspan></text><text
     xml:space="preserve"
     style="font-size:16px;font-family:'Palatino Linotype';-inkscape-font-specification:'Palatino Linotype, Normal';opacity:1;fill:#000000;fill-opacity:1;stroke-width:0.999997;-inkscape-stroke:none;paint-order:stroke markers fill"
     x="49.970051"
     y="13.570312"
     id="text110"><tspan
       sodipodi:role="line"
       id="tspan110"
       style="fill:#000000;fill-opacity:1;stroke-width:1"
       x="49.970051"
       y="13.570312">10<tspan
   style="font-size:65%;baseline-shift:super;fill:#000000;fill-opacity:1"
   id="tspan111">-3</tspan></tspan></text><text
     xml:space="preserve"
     style="font-size:16px;font-family:'Palatino Linotype';-inkscape-font-specification:'Palatino Linotype, Normal';opacity:1;fill:#000000;fill-opacity:1;stroke:none;stroke-width:0.999997;stroke-opacity:1;-inkscape-stroke:none;paint-order:stroke markers fill"
     x="283.29269"
     y="122.45803"
     id="text116"><tspan
       sodipodi:role="line"
       id="tspan116"
       style="stroke-width:1"
       x="283.29269"
       y="122.45803">rad</tspan></text></svg>
